<?xml version="1.0" encoding="UTF-8"?>
<svg id="Layer_2" xmlns="http://www.w3.org/2000/svg" viewBox="0 0 101 101">
  <defs>
    <style>
      .cls-1 {
        fill: #283b57;
        stroke: #283b57;
        stroke-miterlimit: 10;
      }
    </style>
  </defs>
  <g id="Layer_1-2" data-name="Layer_1">
    <g>
      <path class="cls-1" d="M31.47,4.25v92.5C13.29,89.27.5,71.38.5,50.5S13.29,11.73,31.47,4.25Z"/>
      <path class="cls-1" d="M64.39,2.46l-24.08,25.21V1.54c3.29-.68,6.7-1.04,10.19-1.04,4.82,0,9.48.68,13.89,1.96Z"/>
      <path class="cls-1" d="M80.7,10.66l-40.39,42.29v-12.49L73.25,5.97c2.63,1.34,5.12,2.91,7.45,4.69Z"/>
      <path class="cls-1" d="M100.5,50.5c0,27.62-22.39,50-50,50-3.49,0-6.9-.36-10.19-1.03v-33.73l46.93-49.14c8.23,8.9,13.26,20.81,13.26,33.9Z"/>
    </g>
  </g>
</svg>